<svg width="28" height="24" viewBox="0 0 28 24" fill="none" xmlns="http://www.w3.org/2000/svg">
<path d="M2.29254 8C2.29254 6.34315 3.63569 5 5.29254 5H7.97783C8.7558 5 9.51688 5.22686 10.1679 5.65281L12.7575 7.34719C13.4085 7.77313 14.1696 8 14.9476 8H22.2179C23.8748 8 25.2179 9.34315 25.2179 11V19C25.2179 20.6569 23.8748 22 22.2179 22H5.29254C3.63569 22 2.29254 20.6569 2.29254 19V8Z" stroke="#524B6B" stroke-width="1.5"/>
<path d="M6.87761 5H16.9397C17.937 5 18.8983 5.37255 19.6351 6.0446L21.7791 8" stroke="#524B6B" stroke-width="1.5"/>
<path d="M16.9974 14.8284L14.132 12.3287C13.9239 12.1472 13.5865 12.1472 13.3784 12.3287L10.5131 14.8284" stroke="#524B6B" stroke-width="1.5" stroke-linecap="round"/>
<path d="M13.7552 13V18" stroke="#524B6B" stroke-width="1.5" stroke-linecap="round"/>
</svg>
